<svg lyte-else="" class="zc-organization-logo-alt" width="22px" height="22px" viewBox="0 0 22 22" version="1.1"> <g id="Page-1" stroke="none" stroke-width="1" fill="none" fill-rule="evenodd"> <g id="01-copy" transform="translate(-300.000000, -216.000000)"> <g id="Add-image" transform="translate(301.000000, 217.000000)"> <path d="M7,8 C5.89543045,8 5,7.10456955 5,6 C5,4.89543045 5.89543045,4 7,4 C8.10456955,4 9,4.89543045 9,6 C9,7.10456955 8.10456955,8 7,8 Z" id="Vector" fill="#C3C5CE"></path> <path d="M0.669921875,16.9500594 L5.5999217,13.640059 C6.38992172,13.110059 7.52992159,13.1700584 8.23992157,13.7800584 L8.56992149,14.0700583 C9.34992146,14.7400584 10.6099222,14.7400584 11.3899221,14.0700583 L15.549921,10.5000586 C16.329921,9.83005857 17.5899227,9.83005857 18.3699226,10.5000586 L19.9999218,11.9000583 L19.9999218,13.7895365 C19.9999218,17.103245 17.3136303,19.7895365 13.9999218,19.7895365 C13.9309816,19.7895365 13.8620465,19.7883483 13.7931473,19.7859724 L2.66547866,19.4022582 C1.55059461,19.3638137 0.666666667,18.44888 0.666666667,17.3333333 L0.666666667,17.3333333 L0.666666667,17.3333333" id="Vector-Copy" fill="#C3C5CE" fill-rule="nonzero"></path> <path d="M11,0 L7,0 C2,0 0,2 0,7 L0,13 C0,18 2,20 7,20 L13,20 C18,20 20,18 20,13 L20,7" id="Vector" stroke="#C3C5CE" stroke-linecap="round" stroke-linejoin="round" stroke-dasharray="0,0" fill-rule="nonzero"></path> <g id="Group-13" transform="translate(13.750000, 0.250000)" stroke="#C3C5CE" stroke-dasharray="0,0" stroke-linecap="round"> <line x1="0" y1="2.75" x2="5.5" y2="2.75" id="Vector"></line> <line x1="2.75" y1="5.5" x2="2.75" y2="0" id="Vector"></line> </g> <path d="M1,17 L5.5999217,13.640059 C6.38992172,13.110059 7.52992159,13.1700584 8.23992157,13.7800584 L8.56992149,14.0700583 C9.34992146,14.7400584 10.6099222,14.7400584 11.3899221,14.0700583 L15.549921,10.5000586 C16.329921,9.83005857 17.5899227,9.83005857 18.3699226,10.5000586 C19.1233075,11.1666862 19.5,11.5 19.5,11.5 L19.9167576,11.9409199" id="Vector" stroke="#C3C5CE" stroke-linecap="round" stroke-linejoin="round" stroke-dasharray="0,0" fill-rule="nonzero"></path> </g> </g> </g> </svg>